HIERARCHY
ROOT joint_Root
{
	OFFSET 0.0 0.0 0.0
	CHANNELS 6 Xposition Yposition Zposition Zrotation Xrotation Yrotation 
	JOINT Hips
	{
		OFFSET -0.726466 93.3139 -2.00062
		CHANNELS 6 Xposition Yposition Zposition Zrotation Xrotation Yrotation 
		JOINT Spine
		{
			OFFSET 15.7357 0.0 0.0
			CHANNELS 6 Xposition Yposition Zposition Zrotation Xrotation Yrotation 
			JOINT Chest
			{
				OFFSET 8.98455 -0.406207 0.0
				CHANNELS 6 Xposition Yposition Zposition Zrotation Xrotation Yrotation 
				JOINT Neck
				{
					OFFSET 16.3773 0.0 0.0
					CHANNELS 6 Xposition Yposition Zposition Zrotation Xrotation Yrotation 
					JOINT Head
					{
						OFFSET 6.45672 0.0 0.0
						CHANNELS 6 Xposition Yposition Zposition Zrotation Xrotation Yrotation 
						End Site
						{
							OFFSET 0.0 0.0 0.0
						}
					}
				}
				JOINT Shoulder_L
				{
					OFFSET 12.9942 -0.242716 4.98039
					CHANNELS 6 Xposition Yposition Zposition Zrotation Xrotation Yrotation 
					JOINT UpperArm_L
					{
						OFFSET 5.34809 0.0 0.0
						CHANNELS 6 Xposition Yposition Zposition Zrotation Xrotation Yrotation 
						JOINT LowerArm_L
						{
							OFFSET 24.3286 1.87007e-05 0.0
							CHANNELS 6 Xposition Yposition Zposition Zrotation Xrotation Yrotation 
							JOINT Hand_L
							{
								OFFSET 22.2916 0.0 0.0
								CHANNELS 6 Xposition Yposition Zposition Zrotation Xrotation Yrotation 
								End Site
								{
									OFFSET 0.0 0.0 0.0
								}
							}
						}
					}
				}
				JOINT Shoulder_R
				{
					OFFSET 12.9945 -0.242716 -4.98039
					CHANNELS 6 Xposition Yposition Zposition Zrotation Xrotation Yrotation 
					JOINT UpperArm_R
					{
						OFFSET -5.34813 0.0 0.0
						CHANNELS 6 Xposition Yposition Zposition Zrotation Xrotation Yrotation 
						JOINT LowerArm_R
						{
							OFFSET -24.3289 0.000322201 0.0
							CHANNELS 6 Xposition Yposition Zposition Zrotation Xrotation Yrotation 
							JOINT Hand_R
							{
								OFFSET -22.2915 -0.000108084 0.0
								CHANNELS 6 Xposition Yposition Zposition Zrotation Xrotation Yrotation 
								End Site
								{
									OFFSET 0.0 0.0 0.0
								}
							}
						}
					}
				}
			}
		}
		JOINT UpperLeg_L
		{
			OFFSET -2.19248 -6.46944 0.0
			CHANNELS 6 Xposition Yposition Zposition Zrotation Xrotation Yrotation 
			JOINT LowerLeg_L
			{
				OFFSET 39.0811 0.0 -1.23785e-05
				CHANNELS 6 Xposition Yposition Zposition Zrotation Xrotation Yrotation 
				JOINT Foot_L
				{
					OFFSET 40.9854 0.0 -1.26872e-05
					CHANNELS 6 Xposition Yposition Zposition Zrotation Xrotation Yrotation 
					JOINT Toes_L
					{
						OFFSET 11.7543 0.0 0.0
						CHANNELS 6 Xposition Yposition Zposition Zrotation Xrotation Yrotation 
						End Site
						{
							OFFSET 0.0 0.0 0.0
						}
					}
				}
			}
		}
		JOINT UpperLeg_R
		{
			OFFSET -2.19251 6.46944 0.0
			CHANNELS 6 Xposition Yposition Zposition Zrotation Xrotation Yrotation 
			JOINT LowerLeg_R
			{
				OFFSET -39.0811 -0.00228153 -0.0401928
				CHANNELS 6 Xposition Yposition Zposition Zrotation Xrotation Yrotation 
				JOINT Foot_R
				{
					OFFSET -40.9854 0.0 0.0
					CHANNELS 6 Xposition Yposition Zposition Zrotation Xrotation Yrotation 
					JOINT Toes_R
					{
						OFFSET -11.7543 0.0 0.0
						CHANNELS 6 Xposition Yposition Zposition Zrotation Xrotation Yrotation 
						End Site
						{
							OFFSET 0.0 0.0 0.0
						}
					}
				}
			}
		}
	}
}
MOTION
Frames:	5
Frame Time:	0.0333333
0.000000 0.000000 0.000000 0.000000 0.000000 -0.000000 -1.719400 92.526700 -0.278012 88.031600 -3.766400 2.058290 15.735700 0.000005 -0.000001 72.300400 86.008900 -69.980900 8.984550 -0.406207 -0.000000 -0.104588 -2.585430 4.634380 16.377300 -0.000001 -0.000001 1.331970 -0.441783 -4.426160 6.456720 -0.000001 -0.000000 3.058770 -2.077030 -1.016270 12.994200 -0.242716 4.980390 -84.895700 -9.567350 -61.745300 5.348090 -0.000007 -0.000001 -94.802200 -48.324200 -117.952000 24.328600 0.000019 0.000005 -3.978730 -7.656140 -27.564900 22.291600 -0.000001 0.000005 39.173300 5.325390 -0.660629 12.994500 -0.242716 -4.980390 88.964100 3.196330 -72.032100 -5.348130 -0.000001 -0.000004 -66.302000 30.856900 -13.345300 -24.328900 0.000322 -0.000009 2.187330 6.087590 -19.816200 -22.291500 -0.000108 -0.000004 9.800950 5.389040 -2.584530 -2.192480 -6.469440 -0.000000 -174.869000 -9.790980 -2.948030 39.081100 -0.000007 -0.000012 -0.110401 0.291834 20.721800 40.985400 -0.000006 -0.000013 -1.375040 1.926480 -65.519800 11.754300 -0.000000 0.000003 -0.000048 -0.000550 -16.598900 -2.192510 6.469440 -0.000001 -178.838000 13.269400 178.870000 -39.081100 -0.002282 -0.040193 -0.009908 0.041676 17.616500 -40.985400 0.000008 0.000006 5.036580 8.241010 -65.257600 -11.754300 -0.000006 -0.000006 -0.007732 -0.085834 -20.068100
0.000000 0.000000 0.000000 0.000000 0.000000 -0.000000 -1.784520 92.513100 -0.229072 88.021900 -3.546710 2.051690 15.735700 0.000005 -0.000001 73.124600 86.059500 -70.969500 8.984550 -0.406207 -0.000000 -0.174526 -2.436470 4.304470 16.377300 -0.000001 -0.000001 1.366810 -0.258937 -4.523350 6.456720 -0.000001 -0.000000 3.026780 -1.967860 -1.025670 12.994200 -0.242716 4.980390 -84.927900 -9.579400 -61.926800 5.348090 -0.000007 -0.000001 -90.354400 -48.842000 -117.223000 24.328600 0.000019 0.000005 -5.216220 -8.298560 -32.310500 22.291600 -0.000001 0.000005 37.251700 5.378240 -2.254060 12.994500 -0.242716 -4.980390 88.985100 3.158810 -72.178500 -5.348130 -0.000001 -0.000004 -66.684200 31.156600 -12.897400 -24.328900 0.000322 -0.000009 2.187470 6.398370 -18.928300 -22.291500 -0.000108 -0.000004 9.716410 5.389290 -2.592500 -2.192480 -6.469440 -0.000000 -174.827000 -9.582050 -3.001200 39.081100 -0.000007 -0.000012 -0.110470 0.290698 20.807700 40.985400 -0.000006 -0.000013 -1.417630 1.930430 -65.570300 11.754300 -0.000000 0.000003 -0.000047 -0.000539 -16.598500 -2.192510 6.469440 -0.000001 -178.811000 13.554500 178.901000 -39.081100 -0.002282 -0.040193 -0.010024 0.041987 17.637800 -40.985400 0.000008 0.000006 5.000790 8.291940 -65.316800 -11.754300 -0.000006 -0.000006 -0.007860 -0.086888 -20.111100
0.000000 0.000000 0.000000 0.000000 0.000000 -0.000000 -1.823220 92.515500 -0.168609 88.042300 -3.387750 2.100280 15.735700 0.000005 -0.000001 73.632300 86.091600 -71.644900 8.984550 -0.406207 -0.000000 -0.221989 -2.340730 3.968350 16.377300 -0.000001 -0.000001 1.371420 0.023720 -4.672000 6.456720 -0.000001 -0.000000 3.007210 -1.699270 -1.098470 12.994200 -0.242716 4.980390 -84.928500 -9.645030 -62.090400 5.348090 -0.000007 -0.000001 -85.510700 -49.755500 -116.449000 24.328600 0.000019 0.000005 -6.737700 -8.558090 -38.444300 22.291600 -0.000001 0.000005 34.512100 5.431740 -4.018710 12.994500 -0.242716 -4.980390 88.977400 3.214680 -72.343100 -5.348130 -0.000001 -0.000004 -66.853200 31.445300 -12.689200 -24.328900 0.000322 -0.000009 2.159260 6.651110 -18.039900 -22.291500 -0.000108 -0.000004 9.634620 5.386310 -2.497640 -2.192480 -6.469440 -0.000000 -174.808000 -9.472340 -2.879630 39.081100 -0.000007 -0.000012 -0.111198 0.293981 20.719200 40.985400 -0.000006 -0.000013 -1.435210 2.001980 -65.562600 11.754300 -0.000000 0.000003 -0.000038 -0.000444 -16.594800 -2.192510 6.469440 -0.000001 -178.831000 13.798100 179.046000 -39.081100 -0.002282 -0.040193 -0.007473 0.034103 17.570900 -40.985400 0.000008 0.000006 5.110260 8.319010 -65.369900 -11.754300 -0.000006 -0.000006 -0.007692 -0.085497 -20.054300
0.000000 0.000000 0.000000 0.000000 0.000000 -0.000000 -1.837160 92.507800 -0.131698 87.966800 -3.310540 2.055660 15.735700 0.000005 -0.000001 73.902000 86.129200 -72.030800 8.984550 -0.406207 -0.000000 -0.287702 -2.277560 3.735000 16.377300 -0.000001 -0.000001 1.369150 0.313396 -4.787360 6.456720 -0.000001 -0.000000 2.921090 -1.401690 -1.155130 12.994200 -0.242716 4.980390 -84.942500 -9.645820 -62.158000 5.348090 -0.000007 -0.000001 -80.563800 -50.817800 -115.735000 24.328600 0.000019 0.000005 -7.414290 -7.335720 -45.550900 22.291600 -0.000001 0.000005 31.982900 5.487350 -6.051700 12.994500 -0.242716 -4.980390 88.953800 3.307380 -72.436100 -5.348130 -0.000001 -0.000004 -66.907600 31.569000 -12.800600 -24.328900 0.000322 -0.000009 2.086760 6.788040 -17.141300 -22.291500 -0.000108 -0.000004 9.755900 5.384510 -2.440910 -2.192480 -6.469440 -0.000000 -174.733000 -9.419170 -2.976670 39.081100 -0.000007 -0.000012 -0.110745 0.290992 20.835800 40.985400 -0.000006 -0.000013 -1.433470 2.036300 -65.627900 11.754300 -0.000000 0.000003 -0.000051 -0.000577 -16.599900 -2.192510 6.469440 -0.000001 -178.744000 13.972100 179.042000 -39.081100 -0.002282 -0.040193 -0.005201 0.026953 17.555200 -40.985400 0.000008 0.000006 5.256880 8.360380 -65.419900 -11.754300 -0.000006 -0.000006 -0.007832 -0.086659 -20.101800
0.000000 0.000000 0.000000 0.000000 0.000000 -0.000000 -1.799500 92.505000 -0.091709 87.976200 -3.271760 2.067100 15.735700 0.000005 -0.000001 73.994900 86.143700 -72.241000 8.984550 -0.406207 -0.000000 -0.315192 -2.249710 3.500020 16.377300 -0.000001 -0.000001 1.344750 0.571201 -4.830860 6.456720 -0.000001 -0.000000 2.875230 -1.142440 -1.099820 12.994200 -0.242716 4.980390 -84.968100 -9.638090 -62.259800 5.348090 -0.000007 -0.000001 -75.650600 -52.094300 -114.720000 24.328600 0.000019 0.000005 -6.242010 -4.620360 -53.654300 22.291600 -0.000001 0.000005 29.921900 5.532880 -7.929970 12.994500 -0.242716 -4.980390 88.927200 3.404200 -72.497000 -5.348130 -0.000001 -0.000004 -66.976100 31.394800 -12.939500 -24.328900 0.000322 -0.000009 2.058600 6.952140 -16.547700 -22.291500 -0.000108 -0.000004 10.003700 5.382460 -2.376030 -2.192480 -6.469440 -0.000000 -174.758000 -9.371880 -2.935980 39.081100 -0.000007 -0.000012 -0.111457 0.292992 20.827200 40.985400 -0.000006 -0.000013 -1.416570 2.035820 -65.655800 11.754300 -0.000000 0.000003 -0.000041 -0.000475 -16.596100 -2.192510 6.469440 -0.000001 -178.799000 14.050200 179.092000 -39.081100 -0.002282 -0.040193 -0.005688 0.028497 17.551800 -40.985400 0.000008 0.000006 5.234130 8.431060 -65.452000 -11.754300 -0.000006 -0.000006 -0.007681 -0.085411 -20.050800
